PathFileType	4	(X/Y/Z)	RBDS016\RBDS016runT25.trc
DataRate	CameraRate	NumFrames	NumMarkers	Units	OrigDataRate	OrigDataStartFrame	OrigNumFrames
150.000000	150.000000	4	33	mm	150.000000	3375	4500
Frame#	Time	L.ASIS			L.Heel.Bottom			L.Heel.Lateral			L.Heel.Top			L.Iliac.Crest			L.MT1			L.MT5			L.PSIS			L.Shank.Bottom.Lateral			L.Shank.Bottom.Medial			L.Shank.Top.Lateral			L.Shank.Top.Medial			L.Thigh.Bottom.Lateral			L.Thigh.Bottom.Medial			L.Thigh.Top.Lateral			L.Thigh.Top.Medial			R.ASIS			R.ASY			R.Heel.Bottom			R.Heel.Lateral			R.Heel.Top			R.Iliac.Crest			R.MT1			R.MT5			R.PSIS			R.Shank.Bottom.Lateral			R.Shank.Bottom.Medial			R.Shank.Top.Lateral			R.Shank.Top.Medial			R.Thigh.Bottom.Lateral			R.Thigh.Bottom.Medial			R.Thigh.Top.Lateral			R.Thigh.Top.Medial			
		X1	Y1	Z1	X2	Y2	Z2	X3	Y3	Z3	X4	Y4	Z4	X5	Y5	Z5	X6	Y6	Z6	X7	Y7	Z7	X8	Y8	Z8	X9	Y9	Z9	X10	Y10	Z10	X11	Y11	Z11	X12	Y12	Z12	X13	Y13	Z13	X14	Y14	Z14	X15	Y15	Z15	X16	Y16	Z16	X17	Y17	Z17	X18	Y18	Z18	X19	Y19	Z19	X20	Y20	Z20	X21	Y21	Z21	X22	Y22	Z22	X23	Y23	Z23	X24	Y24	Z24	X25	Y25	Z25	X26	Y26	Z26	X27	Y27	Z27	X28	Y28	Z28	X29	Y29	Z29	X30	Y30	Z30	X31	Y31	Z31	X32	Y32	Z32	X33	Y33	Z33	

3376	22.5	2455.323619112355	877.8482561802491	966.7820694358719	1934.659083257051	348.300836759771	994.5864390465201	1954.601041360603	336.7010566407194	946.8935316861389	1982.074320328927	352.5944420633825	988.3238787866795	2387.122880233826	946.1892640127996	907.8717938261478	2019.926682669273	143.7294724879695	988.180047792374	1986.014458473579	189.2360035942183	895.230459050327	2262.584593777864	907.6263347878387	1018.761909564001	2079.131413659815	350.0884503960835	928.9553860794482	2074.366209091793	365.4795123288992	982.2076796424269	2150.451081067848	387.2057703252607	925.7766727388661	2147.06213151586	401.5029311349363	977.4573403776076	2373.65246462872	503.4700978704811	908.9817060006658	2313.396602081589	506.7265767505525	950.368871746845	2367.943280913936	611.8252164054253	892.2240927912435	2310.122720243181	614.6370787555144	931.5473741454722	2437.803630063079	904.742851667819	1197.036933400925	2534.249415327736	77.411458289294	1113.224946648074	2351.561460589539	26.64232340414013	1078.168203535518	2373.279216495423	49.74036542418771	1121.96986801372	2366.100660224348	76.74190669074622	1076.487682779622	2354.289488611388	957.7884484067858	1234.83185000832	2570.131463984142	47.75461461264704	1076.148420846166	2521.113955410592	34.5591707878134	1178.803241959213	2253.873539128248	908.778831800108	1118.184924794795	2430.213093666427	144.8214276693926	1153.77866319088	2392.95747507119	160.2946451752586	1121.929784704736	2438.634802672888	225.6012472025299	1179.203009719861	2399.668804691029	237.5513227031293	1144.494613853278	2454.510588810203	544.8567724301421	1226.545987351448	2398.730582996843	526.3009470108665	1184.280723089694	2402.940277283359	640.2833285905025	1250.959809164894	2351.484627352355	622.3858577447289	1210.557434263336	
3377	22.50666666666667	2453.817735844705	872.2052777708172	966.5939590818234	1943.838765059018	348.5044180030094	993.7969634874005	1964.569174432828	337.6650918331753	946.2563613601085	1991.333845988345	352.8605199979879	988.4376479662519	2384.198640254982	938.3664675516712	907.0815744603329	2029.323009668663	144.046366520046	985.6856017840237	1997.045718475057	191.0555945112159	892.9150521440532	2260.201045606408	901.8261568039371	1018.634879868161	2089.539277880265	350.1408486183889	928.9440250925916	2084.808886329953	365.4246393751837	982.2331965357174	2161.375328167659	386.3482787463461	926.1234429166527	2158.045238548356	400.4558832239464	977.8128863529688	2380.824631899484	499.8359644241035	909.4422991863122	2320.674361635449	501.3388146857476	951.1010738154387	2372.00556558501	608.0249735807961	892.9424653935048	2314.440037236529	609.1444171520773	932.6954260865745	2436.255425627195	899.8218456352881	1198.444925832539	2518.862363247705	76.39505125781585	1112.526818819918	2335.613392076697	27.58840248265693	1077.897082501352	2357.53945030678	50.84870005288393	1121.503915995469	2350.899787662754	77.50553334280681	1075.734263932044	2351.532460722734	951.5073592257182	1235.930314177035	2554.637483105626	46.3832687219348	1076.116636460386	2504.99298207533	34.79156039496626	1178.943268738169	2251.657457442731	903.7886144213072	1117.6668138812	2418.329220124117	144.9164714571391	1152.915855262275	2381.635649447252	161.7794807604038	1121.138983016862	2429.997820115678	225.302884757695	1178.315926194045	2391.511225762152	238.7782303203768	1143.66760906636	2452.92277917398	541.3207154142113	1226.512460936231	2397.573367646029	522.8873732699071	1183.656569366497	2401.065823835075	636.4945706897515	1250.965724945989	2349.930180583404	618.7725381077665	1210.048989820962	
3378	22.51333333333334	2452.17354916796	867.1814317779708	966.2684065967604	1953.306705597249	347.7161287158224	993.0634580382728	1974.889431377932	337.6969631407611	945.7102728512383	2000.858931889488	352.3466843370884	988.6078252439197	2380.765269278966	931.3852765918612	906.3743279335218	2039.852290942715	143.7503735052964	983.4233951415127	2009.055836385161	192.0634808251619	890.8237565836259	2257.807094293814	897.0473163700435	1018.806918629572	2100.228297290654	349.7950004185278	929.0397728587689	2095.496387342633	364.9334545915587	982.3735693786208	2172.411984169271	385.3848165686501	926.5442417339079	2169.105299858084	399.2839574642899	978.2565875521418	2388.209799753296	496.9470769892105	909.8286802122219	2328.229939968822	496.6491916763358	951.7640384173109	2376.155968683015	604.863977469991	893.5717236602395	2318.872564080554	604.2459380466934	933.7186100004371	2434.740470419974	895.1930274419368	1199.768712161162	2503.065450541044	75.88528710370447	1112.144512700919	2319.552825693048	28.391990389029	1077.702901327525	2341.598137026524	51.79015594137581	1121.184835398508	2335.344371980307	78.167837640767	1075.200789077491	2348.721680922489	945.8132086805294	1236.988481608215	2538.774214303387	45.77979655908349	1076.285816689591	2488.666139035598	35.23471960006376	1179.162494394549	2249.579632608251	899.7834368476358	1117.386941693099	2405.786152556246	145.1480752318382	1152.30176352625	2369.719421287918	163.3206567874824	1120.539050675879	2420.545912418982	225.0611428096962	1177.640509734798	2382.593811987773	239.962641979857	1143.009668949369	2450.368554693644	537.8318428880128	1226.481947637511	2395.502072560121	519.7244530189646	1182.886795704411	2398.495042815521	632.9346501532904	1250.833205370276	2347.715924093401	615.5626984322998	1209.276418976571	
3379	22.52	2450.407203579909	862.9287771277008	965.8207134062437	1963.010591144478	345.9147725108214	992.38349651815	1985.476467257461	336.7613346665501	945.249487726488	2010.594398699131	351.0327927032204	988.8041871611646	2376.90655797938	925.4979586047806	905.8122721141928	2051.451200684665	142.8141168552003	981.4218785143672	2021.914881006401	192.2147999558062	888.9789489280912	2255.472319099036	893.3280365820295	1019.306931968077	2111.116265541027	349.0329747531187	929.2205915332132	2106.346330304286	363.9884860565467	982.6072961794106	2183.476270117629	384.3191496966176	927.0192461061979	2180.156130839091	397.9936200821319	978.7694913531459	2395.78794133943	494.828977387738	910.1253769650531	2336.024069777994	492.688843931722	952.3062302624015	2380.401686159407	602.3619668115252	894.0785639508641	2323.403106784814	599.9651561890003	934.5411904805079	2433.293032764194	890.9817539633597	1200.953012704312	2486.945551242561	75.70254357316388	1112.027302519035	2303.352649139385	29.05627697106328	1077.584575953576	2325.458536077294	52.56316182147316	1121.000557717552	2319.46977318949	78.73701609151811	1074.866675829169	2345.96032000034	940.8453360863801	1237.975842235092	2522.600314461867	45.68779791083393	1076.600941206793	2472.163783787166	35.72638800268129	1179.432723202426	2247.679320212358	896.7679458060242	1117.404708159235	2392.633220293778	145.4219870972882	1151.915746633261	2357.224497303492	164.8091383462403	1120.129571808774	2410.286667197217	224.8011400732039	1177.169481196394	2372.887756167208	241.0102861389763	1142.533519830824	2446.795421069955	534.4196465603595	1226.45170771606	2392.430538859712	516.8592889887	1182.008972355343	2395.23007161538	629.6579308218845	1250.589023480103	2344.818873552078	612.825139417437	1208.299350732689	
